<svg xmlns="http://www.w3.org/2000/svg" xmlns:xlink="http://www.w3.org/1999/xlink" version="1.1" id="Your_Icon" x="0px" y="0px" width="48px" height="48px" viewBox="17 176.375 48 48" enable-background="new 17 176.375 48 48" xml:space="preserve">
<path fill="#000000" d="M41,176.375c-13.255,0-24,10.745-24,24s10.745,24,24,24s24-10.745,24-24S54.255,176.375,41,176.375z   M51.625,210.193c0,2.199-1.688,4-3.75,4s-3.75-1.801-3.75-4v-7.23c-0.184,0.355-0.406,0.696-0.703,0.994l-9.344,9.342  c-1.557,1.557-2.828,1.029-2.828-1.171v-22c0-2.2,1.271-2.728,2.828-1.171l9.344,9.342c0.297,0.299,0.52,0.639,0.703,0.994v-7.23  c0-2.199,1.688-4,3.75-4s3.75,1.801,3.75,4V210.193z"/>
</svg>